<svg
  width="1em"
  height="1em"
  preserveAspectRatio="none"
  xmlns="http://www.w3.org/2000/svg"
  viewBox="0 0 1440 590"
>
<path d="M 0,600 L 0,225 C 33.91123212350314,232.73455549974886 67.82246424700628,240.46911099949776 121,237 C 174.17753575299372,233.53088900050224 246.6213751354781,218.85811150175792 301,231 C 355.3786248645219,243.14188849824208 391.6920352110815,282.0984429934706 439,279 C 486.3079647889185,275.9015570065294 544.6104840201962,230.74811652435963 599,199 C 653.3895159798038,167.25188347564037 703.866028708134,148.90909090909093 741,175 C 778.133971291866,201.09090909090907 801.925401147268,271.6155198392767 854,283 C 906.074598852732,294.3844801607233 986.4323667027941,246.6288297338021 1033,211 C 1079.567633297206,175.3711702661979 1092.3451320415556,151.86916122551483 1139,172 C 1185.6548679584444,192.13083877448517 1266.187105130984,255.89452536413864 1322,272 C 1377.812894869016,288.10547463586136 1408.906447434508,256.5527373179307 1440,225 L 1440,600 L 0,600 Z" stroke="none" stroke-width="0" fill="#81bc47" fill-opacity="1" class="transition-all duration-300 ease-in-out delay-150 path-0" transform="rotate(-180 720 300)"></path></svg>