<svg
  width="1em"
  height="1em"
  preserveAspectRatio="none"
  xmlns="http://www.w3.org/2000/svg"
  viewBox="0 0 1440 590"
>
<path d="M 0,600 L 0,225 C 58.37978645066275,181.18924889543447 116.7595729013255,137.37849779086895 173,171 C 229.2404270986745,204.62150220913105 283.3414948453608,315.67525773195877 344,315 C 404.6585051546392,314.32474226804123 471.8744477172313,201.92047128129605 529,176 C 586.1255522827687,150.07952871870395 633.1607142857142,210.64285714285717 695,240 C 756.8392857142858,269.35714285714283 833.4826951399117,267.5081001472754 893,246 C 952.5173048600883,224.4918998527246 994.908505154639,183.32474226804123 1057,202 C 1119.091494845361,220.67525773195877 1200.8832842415318,299.19293078055966 1268,313 C 1335.1167157584682,326.80706921944034 1387.558357879234,275.90353460972017 1440,225 L 1440,600 L 0,600 Z" stroke="none" stroke-width="0" fill="#ff9500" fill-opacity="1" class="transition-all duration-300 ease-in-out delay-150 path-0" transform="rotate(-180 720 300)"></path></svg>