<svg
  width="1em"
  height="1em"
  preserveAspectRatio="none"
  xmlns="http://www.w3.org/2000/svg"
  viewBox="0 0 1440 590"
>
<path d="M 0,600 L 0,225 C 33.80848174047624,233.5020762538537 67.61696348095248,242.00415250770737 111,255 C 154.38303651904752,267.9958474922926 207.34062781666637,285.4854662230242 250,252 C 292.65937218333363,218.5145337769758 325.02052525238213,134.05398260019584 370,134 C 414.97947474761787,133.94601739980416 472.577271173805,218.29860337619243 518,257 C 563.422728826195,295.70139662380757 596.6703900523978,288.7516038950346 643,270 C 689.3296099476022,251.24839610496545 748.7411686166039,220.6949810436695 791,204 C 833.2588313833961,187.3050189563305 858.3649354811863,184.46847193028745 898,204 C 937.6350645188137,223.53152806971255 991.799089458651,265.4311312351807 1043,261 C 1094.200910541349,256.5688687648193 1142.4387066842096,205.8070031289898 1184,172 C 1225.5612933157904,138.1929968710102 1260.4460838045115,121.34085624886006 1302,133 C 1343.5539161954885,144.65914375113994 1391.7769580977442,184.82957187556997 1440,225 L 1440,600 L 0,600 Z" stroke="none" stroke-width="0" fill="#604CC3" fill-opacity="1" class="transition-all duration-300 ease-in-out delay-150 path-0" transform="rotate(-180 720 300)"></path></svg>